<?xml version="1.0" encoding="UTF-8" standalone="no"?>
<!DOCTYPE svg PUBLIC "-//W3C//DTD SVG 1.1//EN" "http://www.w3.org/Graphics/SVG/1.1/DTD/svg11.dtd">
<svg width="100%" height="100%" viewBox="0 0 4662 1130" version="1.1" xmlns="http://www.w3.org/2000/svg" xmlns:xlink="http://www.w3.org/1999/xlink" xml:space="preserve" xmlns:serif="http://www.serif.com/" style="fill-rule:evenodd;clip-rule:evenodd;stroke-linejoin:round;stroke-miterlimit:2;">
    <g transform="matrix(1,0,0,1,-1597.4,-7489.4)">
        <g transform="matrix(4.16667,0,0,4.16667,-470.85,3289.63)">
            <g transform="matrix(0.24,0,0,0.24,113.004,-789.512)">
                <path d="M4336.47,7767.08L4336.47,7508.75L4107.66,7508.75L4107.66,7833.02L4023.32,7857.32L4023.32,8070.37L4107.66,8046.07L4107.66,8263.81L4023.32,8288.12L4023.32,8501.17L4107.66,8476.87L4107.66,8618.41L4336.47,8618.41L4336.47,7980.13L4502.37,7932.33L4502.37,7719.27L4336.47,7767.08ZM3659.55,8210.19C3631.93,8210.19 3604.79,8207.78 3578.13,8202.96C3551.47,8198.14 3525.77,8191.08 3501.04,8181.76C3476.31,8172.45 3453.02,8161.53 3431.18,8149C3409.33,8136.47 3389.74,8122.5 3372.39,8107.08L3512.12,7954.83C3528.18,7972.17 3549.54,7987.59 3576.2,8001.08C3602.86,8014.57 3630.32,8021.32 3658.59,8021.32C3671.44,8021.32 3683.16,8019.07 3693.76,8014.57C3704.36,8010.08 3709.66,8001.73 3709.66,7989.52C3709.66,7983.1 3707.9,7977.63 3704.36,7973.14C3700.83,7968.64 3694.57,7963.98 3685.57,7959.16C3676.58,7954.35 3664.21,7949.05 3648.47,7943.27C3632.73,7937.48 3612.98,7930.74 3589.21,7923.03C3566.08,7915.32 3543.92,7906.17 3522.72,7895.57C3501.52,7884.97 3482.73,7871.96 3466.35,7856.54C3449.97,7841.12 3436.96,7822.65 3427.32,7801.13C3417.68,7779.61 3412.87,7753.75 3412.87,7723.56C3412.87,7681.16 3421.54,7645.19 3438.89,7615.63C3456.23,7586.08 3478.55,7561.83 3505.86,7542.88C3533.16,7523.93 3563.84,7510.28 3597.88,7501.93C3631.93,7493.57 3665.66,7489.4 3699.06,7489.4C3744.03,7489.4 3789.8,7498.07 3836.38,7515.42C3882.95,7532.76 3923.91,7557.82 3959.24,7590.58L3816.62,7736.09C3801.21,7716.81 3782.26,7702.2 3759.77,7692.24C3737.29,7682.28 3717.05,7677.31 3699.06,7677.31C3682.36,7677.31 3668.87,7679.71 3658.59,7684.53C3648.31,7689.35 3643.17,7697.22 3643.17,7708.14C3643.17,7718.42 3648.47,7726.13 3659.07,7731.27C3669.67,7736.41 3686.86,7742.83 3710.63,7750.54C3735.04,7758.25 3760.74,7767.24 3787.72,7777.52C3814.7,7787.8 3839.59,7801.13 3862.4,7817.51C3885.2,7833.89 3903.99,7853.97 3918.77,7877.74C3933.54,7901.51 3940.93,7931.06 3940.93,7966.39C3940.93,8007.51 3932.74,8043.32 3916.36,8073.84C3899.98,8104.35 3878.46,8129.73 3851.8,8149.96C3825.14,8170.2 3795.1,8185.3 3761.7,8195.25C3728.29,8205.21 3694.24,8210.19 3659.55,8210.19ZM1821.93,7772.7L2030.07,7772.7L2030.07,7959.65L1822.89,7959.65L1822.89,8190.92L1597.4,8190.92L1597.4,7508.67L2058.01,7508.67L2058.01,7700.43L1821.93,7700.43L1821.93,7772.7ZM2835.66,7508.67L3304.94,7508.67L3304.94,7699.47L3051.51,7699.47L3051.51,7758.25L3289.52,7758.25L3289.52,7936.52L3051.51,7936.52L3051.51,8000.12L3321.32,8000.12L3321.32,8190.92L2835.66,8190.92L2835.66,7508.67ZM2137.99,7508.67L2431.9,7508.67C2465.3,7508.67 2498.55,7512.04 2531.63,7518.79C2564.72,7525.53 2594.27,7537.42 2620.29,7554.44C2646.3,7571.47 2667.34,7594.27 2683.41,7622.86C2699.47,7651.45 2707.49,7687.26 2707.49,7730.31C2707.49,7772.06 2697.22,7808.84 2676.66,7840.64C2656.1,7872.44 2626.55,7897.01 2588.01,7914.36L2761.46,8190.92L2497.43,8190.92L2366.37,7947.12L2359.63,7947.12L2359.63,8190.92L2137.99,8190.92L2137.99,7508.67ZM2357.7,7796.8L2402.99,7796.8C2410.7,7796.8 2419.21,7796.15 2428.53,7794.87C2437.84,7793.58 2446.51,7790.85 2454.54,7786.68C2462.57,7782.5 2469.32,7776.72 2474.78,7769.33C2480.24,7761.94 2482.97,7752.15 2482.97,7739.94C2482.97,7727.74 2480.72,7718.1 2476.23,7711.03C2471.73,7703.97 2465.95,7698.67 2458.88,7695.13C2451.81,7691.6 2444.11,7689.35 2435.75,7688.39C2427.4,7687.42 2419.69,7686.94 2412.63,7686.94L2357.7,7686.94L2357.7,7796.8Z" style="fill:white;fill-rule:nonzero;"/>
            </g>
            <g transform="matrix(0.24,0,0,0.24,113.004,-789.512)">
                <path d="M4929.68,7936.17L5398.97,7936.17L5398.97,8126.96L5145.53,8126.96L5145.53,8185.74L5383.55,8185.74L5383.55,8364.01L5145.53,8364.01L5145.53,8427.61L5415.35,8427.61L5415.35,8618.41L4929.68,8618.41L4929.68,7936.17ZM5854.76,8418.94L5736.24,8618.41L5464.49,8618.41L5708.29,8262.83L5477.02,7936.17L5753.58,7936.17L5861.51,8115.4L5964.61,7936.17L6234.43,7936.17L6007.01,8259.94L6258.52,8618.41L5978.11,8618.41L5854.76,8418.94ZM4757.74,7650.29L4757.74,7508.75L4528.93,7508.75L4528.93,8147.03L4363.03,8194.84L4363.03,8407.89L4528.93,8360.08L4528.93,8618.41L4757.74,8618.41L4757.74,8294.15L4842.08,8269.84L4842.08,8056.79L4757.74,8081.09L4757.74,7863.35L4842.08,7839.04L4842.08,7625.99L4757.74,7650.29Z" style="fill:#FA0F24;fill-rule:nonzero;"/>
            </g>
        </g>
    </g>
</svg>
